<svg id="Layer_1" data-name="Layer 1" xmlns="http://www.w3.org/2000/svg" viewBox="0 0 1080 1080"><defs><style>.cls-1{isolation:isolate;}.cls-2{fill:#ffb6c7;}.cls-3{fill:#ff92ab;}.cls-4{fill:#ff85a1;}</style></defs><title>CUUB</title><g class="cls-1"><polygon class="cls-2" points="327.87 964.26 27.87 540 327.87 115.74 627.87 540 327.87 964.26"/><polygon class="cls-3" points="752.13 115.74 1052.13 540 627.87 540 327.87 115.74 752.13 115.74"/><polygon class="cls-4" points="752.13 964.26 327.87 964.26 627.87 540 1052.13 540 752.13 964.26"/><polygon class="cls-2" points="452.13 540 752.13 115.74 1052.13 540 752.13 964.26 452.13 540"/><polygon class="cls-4" points="27.87 540 327.87 115.74 752.13 115.74 452.13 540 27.87 540"/><polygon class="cls-3" points="452.13 540 752.13 964.26 327.87 964.26 27.87 540 452.13 540"/></g></svg>